<svg width="37" height="39" viewBox="0 0 37 39" fill="none" xmlns="http://www.w3.org/2000/svg">
<rect width="37" height="39" rx="10" fill="white"/>
<rect x="8.02106" y="18.0203" width="4" height="13" rx="2" transform="rotate(-120.349 8.02106 18.0203)" fill="#006B7F"/>
<rect x="5" y="16.8971" width="4.5" height="14" rx="2.25" transform="rotate(-60 5 16.8971)" fill="#00C1BD"/>
<path d="M10.9902 27.7686C10.1033 28.427 8.85058 28.2418 8.19217 27.3549V27.3549C7.53375 26.468 7.71896 25.2153 8.60585 24.5569L12.219 21.8745L15.8322 19.1922C16.719 18.5337 17.9718 18.719 18.6302 19.6058V19.6058C19.2886 20.4927 19.1034 21.7454 18.2165 22.4039L10.9902 27.7686Z" fill="#006B7F"/>
<path d="M21.4142 12.2426C20.6332 11.4616 20.6332 10.1953 21.4142 9.41421V9.41421C22.1953 8.63316 23.4616 8.63316 24.2426 9.41421L28.0189 13.1905L31.7952 16.9668C32.5762 17.7478 32.5762 19.0141 31.7952 19.7952V19.7952C31.0141 20.5762 29.7478 20.5762 28.9668 19.7952L21.4142 12.2426Z" fill="#006B7F"/>
<path d="M24.2426 27.9391C23.4616 28.7202 22.1953 28.7202 21.4142 27.9391V27.9391C20.6332 27.1581 20.6332 25.8917 21.4142 25.1107L25.2625 21.2625L29.1107 17.4142C29.8917 16.6332 31.1581 16.6332 31.9391 17.4142V17.4142C32.7202 18.1953 32.7202 19.4616 31.9391 20.2426L24.2426 27.9391Z" fill="#006B7F"/>
<rect x="20" y="8" width="4" height="21" rx="2" fill="#00C1BD"/>
</svg>
